<?xml version="1.0" standalone="no"?><!DOCTYPE svg PUBLIC "-//W3C//DTD SVG 1.1//EN" "http://www.w3.org/Graphics/SVG/1.1/DTD/svg11.dtd"><svg t="1642319590317" class="icon" viewBox="0 0 1024 1024" version="1.1" xmlns="http://www.w3.org/2000/svg" p-id="6848" data-spm-anchor-id="a313x.7781069.0.i17" xmlns:xlink="http://www.w3.org/1999/xlink" width="200" height="200"><defs><style type="text/css"></style></defs><path d="M512 128C300.802 128 128 300.802 128 512c0 211.208 172.802 384 384 384 36.272 0 64-27.728 64-64 0-17.062-6.396-32-17.062-42.666-10.666-10.668-17.062-25.606-17.062-42.668 0-36.27 27.728-64 64-64h76.792c117.334 0 213.334-96 213.334-213.332C896 281.604 723.208 128 512 128zM277.334 512c-36.272 0-64-27.728-64-64s27.728-64 64-64c36.27 0 64 27.728 64 64s-27.73 64-64 64z m128-170.666c-36.272 0-64-27.73-64-64 0-36.272 27.728-64 64-64 36.27 0 64 27.728 64 64 0 36.27-27.73 64-64 64z m213.332 0c-36.27 0-64-27.73-64-64 0-36.272 27.73-64 64-64 36.272 0 64 27.728 64 64 0 36.27-27.728 64-64 64z m128 170.666c-36.27 0-64-27.728-64-64s27.73-64 64-64c36.272 0 64 27.728 64 64s-27.728 64-64 64z" p-id="6849" data-spm-anchor-id="a313x.7781069.0.i18" class="" fill="#269398"></path></svg>