<?xml version="1.0" standalone="no"?><!DOCTYPE svg PUBLIC "-//W3C//DTD SVG 1.1//EN" "http://www.w3.org/Graphics/SVG/1.1/DTD/svg11.dtd"><svg t="1642319069943" class="icon" viewBox="0 0 1024 1024" version="1.1" xmlns="http://www.w3.org/2000/svg" p-id="6540" xmlns:xlink="http://www.w3.org/1999/xlink" width="200" height="200"><defs><style type="text/css"></style></defs><path d="M0 824.888889a113.777778 113.777778 0 0 0 113.777778 113.777778h682.666666a113.777778 113.777778 0 0 0 113.777778-113.777778V341.333333a113.777778 113.777778 0 0 0-113.777778-113.777777h-256c-101.319111 0-85.333333-142.222222-240.014222-142.222223H113.777778a113.777778 113.777778 0 0 0-113.777778 113.777778v625.777778z" fill="#5673CF" p-id="6541"></path><path d="M919.779556 341.333333h-186.652445c-154.680889 0-153.116444 142.222222-254.435555 142.222223h-256c-62.833778 0-118.954667 50.944-125.326223 113.777777l-14.023111 110.193778L68.437333 824.888889l-0.568889-0.056889c-3.299556 17.265778-19.114667 28.416-36.977777 28.416-18.289778 0-31.459556-14.421333-30.549334-32.540444C0.284444 822.129778 0 823.466667 0 824.888889a113.464889 113.464889 0 0 0 96.711111 112.042667c5.034667 1.080889 10.552889 1.735111 17.066667 1.735111h739.555555c62.833778 0 118.954667-50.944 125.326223-113.777778l43.320888-369.777778c6.4-62.833778-39.367111-113.777778-102.200888-113.777778z" fill="#6194F2" p-id="6542"></path></svg>