<?xml version="1.0" standalone="no"?><!DOCTYPE svg PUBLIC "-//W3C//DTD SVG 1.1//EN" "http://www.w3.org/Graphics/SVG/1.1/DTD/svg11.dtd"><svg t="1642320431282" class="icon" viewBox="0 0 1024 1024" version="1.1" xmlns="http://www.w3.org/2000/svg" p-id="13344" xmlns:xlink="http://www.w3.org/1999/xlink" width="200" height="200"><defs><style type="text/css"></style></defs><path d="M680 0H160a96 96 0 0 0-96 96v832a96 96 0 0 0 96 96h704a96 96 0 0 0 96-96V280z" fill="#F2A23A" p-id="13345"></path><path d="M800 736l-160-160v128h-256v64h256v128l160-160z" fill="#FFFFFF" p-id="13346"></path><path d="M160 128m64 0l352 0q64 0 64 64l0 191.68q0 64-64 64l-352 0q-64 0-64-64l0-191.68q0-64 64-64Z" fill="#FFFFFF" p-id="13347"></path><path d="M480 192m44.8 0l6.4 0q44.8 0 44.8 44.8l0 102.4q0 44.8-44.8 44.8l-6.4 0q-44.8 0-44.8-44.8l0-102.4q0-44.8 44.8-44.8Z" fill="#F2A23A" p-id="13348"></path></svg>