<?xml version="1.0" standalone="no"?><!DOCTYPE svg PUBLIC "-//W3C//DTD SVG 1.1//EN" "http://www.w3.org/Graphics/SVG/1.1/DTD/svg11.dtd"><svg t="1642322263440" class="icon" viewBox="0 0 1024 1024" version="1.1" xmlns="http://www.w3.org/2000/svg" p-id="6734" xmlns:xlink="http://www.w3.org/1999/xlink" width="200" height="200"><defs><style type="text/css"></style></defs><path d="M216.177778 147.911111h568.888889c56.888889 0 102.4 45.511111 102.4 102.4v568.888889c0 56.888889-45.511111 102.4-102.4 102.4H216.177778c-56.888889 0-102.4-45.511111-102.4-102.4V250.311111c0-56.888889 45.511111-102.4 102.4-102.4z" fill="#339EFF" p-id="6735"></path><path d="M448.284444 472.177778L818.062222 101.262222c30.72-30.72 81.92-30.72 112.64 0s30.72 81.92 0 112.64L560.924444 584.817778c-30.72 30.72-81.92 30.72-112.64 0-30.72-31.857778-30.72-81.92 0-112.64z" fill="#6DC5FF" p-id="6736"></path><path d="M785.066667 147.911111h-12.515556L448.284444 472.177778c-30.72 30.72-30.72 81.92 0 112.64s81.92 30.72 112.64 0L887.466667 258.275556V250.311111c0-56.888889-45.511111-102.4-102.4-102.4z" fill="#0F6CFF" p-id="6737"></path></svg>