<?xml version="1.0" standalone="no"?><!DOCTYPE svg PUBLIC "-//W3C//DTD SVG 1.1//EN" "http://www.w3.org/Graphics/SVG/1.1/DTD/svg11.dtd"><svg t="1642321461405" class="icon" viewBox="0 0 1024 1024" version="1.1" xmlns="http://www.w3.org/2000/svg" p-id="3850" xmlns:xlink="http://www.w3.org/1999/xlink" width="200" height="200"><defs><style type="text/css"></style></defs><path d="M888 268a8 8 0 0 1-8-8v-8c0-17.648-14.352-32-32-32h-8a8 8 0 0 1 0-16h8c26.464 0 48 21.536 48 48v8a8 8 0 0 1-8 8z" fill="#263238" p-id="3851"></path><path d="M288 292h-120l160-160v120a40 40 0 0 1-40 40z" fill="#40C4FF" p-id="3852"></path><path d="M288 300h-120a8 8 0 0 1-5.664-13.664l160-160A8 8 0 1 1 336 132v120c0 26.464-21.536 48-48 48z m-100.688-16H288c17.648 0 32-14.352 32-32V151.312l-132.688 132.688z" fill="#263238" p-id="3853"></path><path d="M768 908H208c-26.464 0-48-21.536-48-48v-568c0-2.128 0.848-4.16 2.336-5.664l160-160a8.064 8.064 0 0 1 5.664-2.336H768c26.464 0 48 21.536 48 48v88a8 8 0 0 1-16 0v-88c0-17.648-14.352-32-32-32H331.312L176 295.312V860c0 17.648 14.352 32 32 32h560c17.648 0 32-14.352 32-32v-344a8 8 0 0 1 16 0v344c0 26.464-21.536 48-48 48z" fill="#263238" p-id="3854"></path><path d="M848 988H288c-26.464 0-48-21.536-48-48v-8a8 8 0 0 1 16 0v8c0 17.648 14.352 32 32 32h560c17.648 0 32-14.352 32-32v-424a8 8 0 0 1 16 0v424c0 26.464-21.536 48-48 48z" fill="#263238" p-id="3855"></path><path d="M952 484h-352a16 16 0 0 1-16-16v-160a16 16 0 0 1 16-16h352a16 16 0 0 1 16 16v160a16 16 0 0 1-16 16z" fill="#FFD740" p-id="3856"></path><path d="M952 492h-352c-13.232 0-24-10.768-24-24v-160c0-13.232 10.768-24 24-24h352c13.232 0 24 10.768 24 24v160c0 13.232-10.768 24-24 24z m-352-192a8 8 0 0 0-8 8v160a8 8 0 0 0 8 8h352a8 8 0 0 0 8-8v-160a8 8 0 0 0-8-8h-352zM288 484a8.032 8.032 0 0 1-5.664-2.336l-40-40a8 8 0 0 1 0-11.312l40-40a8 8 0 0 1 11.312 11.312l-34.336 34.336 34.336 34.336a8 8 0 0 1-5.648 13.664zM376 484a8 8 0 0 1-5.664-13.648l34.336-34.336-34.336-34.336a8 8 0 0 1 11.312-11.312l40 40a8 8 0 0 1 0 11.312l-40 40a8.016 8.016 0 0 1-5.648 2.32zM312 492a8 8 0 0 1-7.376-11.072l40-96a8 8 0 0 1 14.768 6.144l-40 96a8 8 0 0 1-7.392 4.928z" fill="#263238" p-id="3857"></path><path d="M696 452h-32c-13.232 0-24-10.768-24-24v-96a8 8 0 0 1 16 0v96a8 8 0 0 0 8 8h32a8 8 0 0 1 0 16zM872 452a40.048 40.048 0 0 1-40-40v-48c0-22.064 17.952-40 40-40s40 17.936 40 40a8 8 0 0 1-16 0c0-13.232-10.768-24-24-24s-24 10.768-24 24v48c0 13.232 10.768 24 24 24s24-10.768 24-24v-8a8 8 0 0 0-8-8h-16a8 8 0 0 1 0-16h16c13.232 0 24 10.768 24 24v8c0 22.064-17.952 40-40 40zM764 452A44.032 44.032 0 0 1 720 408V368c0-24.272 19.728-44 44-44S808 343.728 808 368v40a44.032 44.032 0 0 1-44 44z m0-112c-15.44 0-28 12.56-28 28v40c0 15.44 12.56 28 28 28s28-12.56 28-28V368c0-15.44-12.56-28-28-28zM728 564h-480a8 8 0 0 1 0-16h480a8 8 0 0 1 0 16zM728 644h-480a8 8 0 0 1 0-16h480a8 8 0 0 1 0 16zM728 724h-480a8 8 0 0 1 0-16h480a8 8 0 0 1 0 16zM232 84h-64a8 8 0 0 1 0-16h64a8 8 0 0 1 0 16z" fill="#263238" p-id="3858"></path><path d="M200 116a8 8 0 0 1-8-8v-64a8 8 0 0 1 16 0v64a8 8 0 0 1-8 8z" fill="#263238" p-id="3859"></path><path d="M120 188h-64a8 8 0 0 1 0-16h64a8 8 0 0 1 0 16z" fill="#263238" p-id="3860"></path><path d="M88 220a8 8 0 0 1-8-8v-64a8 8 0 0 1 16 0v64a8 8 0 0 1-8 8z" fill="#263238" p-id="3861"></path><path d="M696 76h-16a8 8 0 0 1 0-16h16a8 8 0 0 1 0 16z" fill="#263238" p-id="3862"></path><path d="M648 76h-256a8 8 0 0 1 0-16h256a8 8 0 0 1 0 16z" fill="#263238" p-id="3863"></path></svg>