<?xml version="1.0" standalone="no"?><!DOCTYPE svg PUBLIC "-//W3C//DTD SVG 1.1//EN" "http://www.w3.org/Graphics/SVG/1.1/DTD/svg11.dtd"><svg t="1642319334901" class="icon" viewBox="0 0 1024 1024" version="1.1" xmlns="http://www.w3.org/2000/svg" p-id="6790" xmlns:xlink="http://www.w3.org/1999/xlink" width="200" height="200"><defs><style type="text/css"></style></defs><path d="M917.333333 640V384c0-46.933333-38.4-85.333333-85.333333-85.333333H192c-46.933333 0-85.333333 38.4-85.333333 85.333333v256c0 46.933333 38.4 85.333333 85.333333 85.333333h640c46.933333 0 85.333333-38.4 85.333333-85.333333zM192 384h640v256H192V384z" fill="#90CAF9" p-id="6791"></path><path d="M810.666667 810.666667m-213.333334 0a213.333333 213.333333 0 1 0 426.666667 0 213.333333 213.333333 0 1 0-426.666667 0Z" fill="#43A047" p-id="6792"></path><path d="M682.666667 768h256v85.333333H682.666667z" fill="#FFFFFF" p-id="6793"></path><path d="M768 682.666667h85.333333v256h-85.333333z" fill="#FFFFFF" p-id="6794"></path></svg>